<svg width="2939" height="1211" viewBox="0 0 2939 1211" fill="none" xmlns="http://www.w3.org/2000/svg">
<path fill-rule="evenodd" clip-rule="evenodd" d="M1214.29 1207.93V603.965H1061.42V1057.58C952.222 1057.58 823.919 1054.86 709.265 1054.86C589.152 1054.86 501.799 1057.58 403.524 1003.04C324.359 959.404 269.761 907.587 223.354 831.225C73.2121 572.141 217.894 236.695 515.447 168.514C635.752 149.402 1048.99 165.295 1214.29 158.938V7.60962H769.322C619.181 7.60962 469.04 -6.02673 343.467 56.6989C-128.796 283.057 -106.957 923.95 365.306 1153.04C493.608 1215.76 613.721 1207.58 763.862 1207.58C834.838 1207.58 1170.61 1207.93 1214.29 1207.93Z" fill="black"/>
<path fill-rule="evenodd" clip-rule="evenodd" d="M909.139 900.065V603.965H613.5L754.312 751.339C634.796 751.339 547.876 770.267 488.118 686.44C428.36 602.613 477.254 497.153 553.309 467.408C629.365 445.775 1081.19 457.267 1214.29 454.563V305.161C1159.96 305.161 773.327 307.865 689.122 307.865C545.16 307.865 409.346 321.386 338.723 480.929C268.1 637.767 346.872 786.492 439.226 848.686C501.7 889.248 556.024 902.768 645.661 902.768C710.852 900.064 849.382 900.065 909.139 900.065Z" fill="#B21908"/>
<path fill-rule="evenodd" clip-rule="evenodd" d="M1766.14 171.756V201.746C1766.14 253.545 1749.78 297.165 1717.06 327.154C1684.35 357.143 1643.45 373.501 1591.65 373.501C1537.13 373.501 1490.78 357.144 1455.34 321.702C1419.9 286.26 1400.81 242.639 1400.81 190.84C1400.81 139.04 1419.9 95.42 1455.34 59.9783C1490.78 24.5365 1534.4 5.45251 1586.2 5.45251C1618.91 5.45251 1648.9 13.631 1676.17 27.2625C1703.43 40.8939 1725.24 62.7044 1738.87 84.5147L1673.44 128.135C1665.26 117.23 1654.36 106.325 1638 98.1461C1621.64 89.9673 1605.28 87.2411 1586.2 87.2411C1556.21 87.2411 1531.67 98.1465 1512.59 117.23C1493.51 136.314 1482.6 163.577 1482.6 193.566C1482.6 223.555 1493.51 248.092 1512.59 267.176C1531.67 286.26 1558.94 297.166 1591.65 297.166C1638 297.166 1667.99 278.082 1681.62 242.64H1588.93V171.756H1766.14ZM1498.96 708.834H1624.37V785.17H1417.17V433.48H1496.23V708.834H1498.96ZM1714.34 1155.95C1678.89 1191.39 1635.27 1207.74 1583.47 1207.74C1531.67 1207.74 1488.05 1191.39 1452.61 1155.95C1417.17 1120.5 1398.09 1076.88 1398.09 1025.08C1398.09 973.285 1417.17 929.663 1452.61 894.222C1488.05 858.78 1531.67 842.423 1583.47 842.423C1635.27 842.423 1678.89 858.78 1714.34 894.222C1749.78 929.663 1768.86 973.285 1768.86 1025.08C1768.86 1076.88 1749.78 1120.5 1714.34 1155.95ZM1512.59 1101.42C1531.67 1120.5 1556.21 1131.41 1586.2 1131.41C1616.19 1131.41 1640.73 1120.5 1659.81 1101.42C1678.89 1082.34 1689.8 1057.8 1689.8 1025.08C1689.8 995.096 1678.89 967.831 1659.81 948.747C1640.73 929.663 1616.19 918.759 1586.2 918.759C1556.21 918.759 1531.67 929.663 1512.59 948.747C1493.51 967.831 1482.6 992.369 1482.6 1025.08C1482.6 1057.8 1493.51 1082.34 1512.59 1101.42Z" fill="#B21908"/>
<path fill-rule="evenodd" clip-rule="evenodd" d="M1809.75 368.049V0H1886.09V368.049H1809.75ZM2155.99 335.334C2131.46 359.87 2098.74 373.502 2060.57 373.502C2022.41 373.502 1992.42 359.87 1965.15 335.334C1940.62 310.797 1926.98 278.082 1926.98 239.914C1926.98 201.746 1940.62 171.757 1965.15 144.494C1989.69 119.957 2022.41 106.326 2060.57 106.326C2098.74 106.326 2128.73 119.957 2155.99 144.494C2180.53 169.03 2194.16 201.746 2194.16 239.914C2194.16 280.808 2180.53 310.797 2155.99 335.334ZM2019.68 286.26C2030.58 297.165 2044.22 302.618 2060.57 302.618C2076.93 302.618 2090.56 297.165 2101.47 286.26C2112.37 275.355 2117.82 261.724 2117.82 242.64C2117.82 226.283 2112.37 209.925 2101.47 199.02C2090.56 188.114 2076.93 182.662 2060.57 182.662C2044.22 182.662 2030.58 188.114 2019.68 199.02C2008.77 209.925 2003.32 223.556 2003.32 242.64C2003.32 258.998 2008.77 275.355 2019.68 286.26ZM2385 109.052C2417.72 109.052 2447.71 122.684 2469.52 147.22C2494.05 171.757 2504.96 204.472 2504.96 242.64C2504.96 280.808 2494.05 310.797 2469.52 338.06C2444.98 362.597 2417.72 376.228 2385 376.228C2352.29 376.228 2327.75 365.323 2311.39 346.239V370.775H2235.05V19.0843H2311.39V144.494C2330.48 119.957 2355.01 109.052 2385 109.052ZM2327.75 286.26C2338.65 297.165 2352.29 302.618 2371.37 302.618C2387.73 302.618 2404.09 297.165 2414.99 286.26C2425.9 275.355 2431.35 258.998 2431.35 242.64C2431.35 223.556 2425.9 209.925 2414.99 199.02C2404.09 188.114 2390.45 182.662 2371.37 182.662C2355.01 182.662 2338.65 188.114 2327.75 199.02C2316.84 209.925 2311.39 226.283 2311.39 242.64C2311.39 261.724 2316.84 275.355 2327.75 286.26ZM2731.24 117.231H2807.58V368.049H2731.24V343.512C2712.16 362.596 2687.62 373.502 2657.63 373.502C2624.91 373.502 2594.93 359.87 2573.12 335.334C2548.58 310.797 2537.67 278.082 2537.67 239.914C2537.67 201.746 2548.58 171.757 2573.12 144.494C2597.65 119.957 2624.91 106.326 2657.63 106.326C2690.34 106.326 2714.88 117.23 2731.24 136.314V117.231ZM2627.64 286.26C2638.55 297.165 2652.18 302.618 2671.26 302.618C2690.34 302.618 2703.98 297.165 2714.88 286.26C2725.79 275.355 2731.24 258.998 2731.24 242.64C2731.24 223.556 2725.79 209.925 2714.88 199.02C2703.98 188.114 2690.34 182.662 2671.26 182.662C2652.18 182.662 2638.55 188.114 2627.64 199.02C2616.74 209.925 2611.28 226.283 2611.28 242.64C2611.28 261.724 2616.74 275.355 2627.64 286.26ZM2862.1 368.049V0H2938.44V368.049H2862.1ZM1837.02 534.353H1913.35V785.171H1837.02V760.635C1817.93 779.719 1793.4 790.623 1763.41 790.623C1730.69 790.623 1700.7 776.993 1678.89 752.456C1654.36 727.92 1643.45 695.204 1643.45 657.036C1643.45 618.868 1654.36 588.879 1678.89 561.616C1703.43 537.08 1730.69 523.448 1763.41 523.448C1796.12 523.448 1820.66 534.352 1837.02 553.436V534.353ZM1733.42 703.382C1744.32 714.287 1757.95 719.741 1777.04 719.741C1796.12 719.741 1809.76 714.287 1820.66 703.382C1831.57 692.477 1837.02 676.12 1837.02 659.762C1837.02 640.678 1831.57 627.047 1820.66 616.142C1809.76 605.237 1796.12 599.783 1777.04 599.783C1757.95 599.783 1744.32 605.237 1733.42 616.142C1722.51 627.047 1717.06 643.404 1717.06 659.762C1717.06 678.846 1722.51 692.477 1733.42 703.382ZM2243.23 534.353H2322.3L2243.23 785.171H2172.35L2131.46 651.583L2090.56 785.171H2019.68L1940.62 534.353H2019.68L2055.12 667.94L2093.29 534.353H2164.17L2202.34 667.94L2243.23 534.353ZM2183.26 951.475V1202.29H2106.92V1022.36H2041.49V1202.29H1965.15V1022.36H1899.72V1202.29H1823.39V1022.36H1790.67V948.748H1823.39C1823.39 913.306 1834.29 886.043 1853.37 866.959C1872.46 847.875 1905.17 839.697 1946.07 842.424V916.034C1916.08 913.307 1899.72 924.212 1899.72 951.475H1965.15V946.022C1965.15 875.139 2006.05 839.696 2087.84 839.696C2106.92 839.696 2128.73 842.424 2150.54 847.876V916.034C2126 913.307 2104.19 913.306 2087.84 913.306C2071.48 913.306 2060.57 916.032 2052.39 921.485C2044.22 926.937 2041.49 935.116 2041.49 948.748V954.201H2183.26V951.475ZM2360.47 1210.47C2322.3 1210.47 2289.58 1196.84 2265.04 1172.3C2240.51 1147.77 2226.88 1115.05 2226.88 1076.88C2226.88 1038.72 2240.51 1008.73 2265.04 981.464C2289.58 956.927 2322.3 943.297 2360.47 943.297C2385 943.297 2406.81 948.748 2425.89 959.654C2444.98 970.559 2461.34 986.917 2472.24 1006L2406.81 1044.17C2398.63 1025.08 2382.27 1016.9 2357.74 1016.9C2341.38 1016.9 2327.75 1022.36 2316.84 1033.26C2305.94 1044.17 2300.49 1057.8 2300.49 1074.16C2300.49 1090.52 2305.94 1104.15 2316.84 1115.05C2327.75 1125.96 2341.38 1131.41 2357.74 1131.41C2382.27 1131.41 2398.63 1123.23 2406.81 1104.15L2472.24 1142.32C2461.34 1161.4 2444.98 1177.76 2425.89 1188.66C2406.81 1205.02 2385 1210.47 2360.47 1210.47ZM2564.94 1106.87C2573.12 1131.41 2594.93 1142.32 2624.92 1142.32C2644 1142.32 2660.36 1136.86 2673.99 1123.23L2733.97 1158.67C2709.43 1194.11 2673.99 1210.47 2624.92 1210.47C2584.02 1210.47 2548.58 1196.84 2524.04 1172.3C2499.51 1147.77 2485.87 1115.05 2485.87 1076.88C2485.87 1038.72 2499.51 1008.73 2524.04 981.464C2548.58 956.927 2581.29 943.297 2619.46 943.297C2654.9 943.297 2687.62 956.927 2709.43 981.464C2733.97 1006 2744.87 1038.72 2744.87 1076.88C2744.87 1087.79 2744.87 1098.69 2742.15 1106.87H2564.94ZM2564.94 1049.62H2673.99C2665.81 1022.36 2649.45 1008.73 2619.46 1008.73C2589.47 1011.45 2570.39 1025.08 2564.94 1049.62Z" fill="black"/>
</svg>
